Coordinates
version=1
nRows=16
nColumns=63
inDegrees=yes

Units are S.I. units (second, meters, Newtons, ...)
If the header above contains a line with 'inDegrees', this indicates whether rotational values are in degrees (yes) or radians (no).

endheader
time	pelvis_tilt	pelvis_list	pelvis_rotation	pelvis_tx	pelvis_ty	pelvis_tz	hip_flexion_r	hip_adduction_r	hip_rotation_r	knee_angle_r	knee_angle_r_beta	ankle_angle_r	subtalar_angle_r	mtp_angle_r	hip_flexion_l	hip_adduction_l	hip_rotation_l	knee_angle_l	knee_angle_l_beta	ankle_angle_l	subtalar_angle_l	mtp_angle_l	L5_S1_Flex_Ext	L5_S1_Lat_Bending	L5_S1_axial_rotation	L4_L5_Flex_Ext	L4_L5_Lat_Bending	L4_L5_axial_rotation	L3_L4_Flex_Ext	L3_L4_Lat_Bending	L3_L4_axial_rotation	L2_L3_Flex_Ext	L2_L3_Lat_Bending	L2_L3_axial_rotation	L1_L2_Flex_Ext	L1_L2_Lat_Bending	L1_L2_axial_rotation	L1_T12_Flex_Ext	L1_T12_Lat_Bending	L1_T12_axial_rotation	Abs_r3	Abs_r2	Abs_r1	Abs_t1	Abs_t2	neck_flexion	neck_bending	neck_rotation	arm_flex_r	arm_add_r	arm_rot_r	elbow_flex_r	pro_sup_r	wrist_flex_r	wrist_dev_r	arm_flex_l	arm_add_l	arm_rot_l	elbow_flex_l	pro_sup_l	wrist_flex_l	wrist_dev_l
0.000000	-1.784945	-3.572090	87.387538	0.242627	0.940987	0.608269	-0.503419	-1.473391	5.940877	2.875871	0.050193	21.282101	-0.920905	0.000000	0.748387	0.236204	-7.686441	5.972367	0.104237	22.713973	-1.183676	0.000000	0.060291	-0.390104	2.456856	0.111966	-0.518839	2.610409	0.099052	-0.948500	2.610409	0.068907	-0.948500	2.149749	0.055986	-0.795501	1.996195	0.034450	-0.604272	1.842642	0.430653	-4.412938	13.664294	0.000000	0.000000	13.297885	3.541247	-11.210846	6.041470	-1.931516	47.218473	36.554433	30.622608	3.869314	11.533365	16.206560	-6.416836	68.115126	33.305978	54.904477	9.561596	-0.698718
0.029412	-1.358162	-3.128359	87.616792	0.241693	0.942209	0.605710	-1.153035	-0.973843	6.856316	2.551288	0.044528	21.040617	-2.302084	0.000000	-0.086470	-0.048331	-6.199237	5.376159	0.093832	21.807126	-3.061428	0.000000	0.051754	-0.331829	2.360678	0.096113	-0.441333	2.508220	0.085027	-0.806809	2.508220	0.059150	-0.806809	2.065593	0.048059	-0.676666	1.918051	0.029572	-0.514003	1.770508	0.369677	-3.753716	13.129382	0.000000	0.000000	12.470451	3.748832	-10.795993	5.708386	-2.432436	46.090204	37.186654	30.273929	2.946491	12.189402	15.056450	-6.597897	65.429803	33.460145	57.812285	8.071382	-1.407077
0.058824	-1.029652	-2.796690	87.769369	0.240956	0.943123	0.603853	-1.580941	-0.601793	7.334145	2.416919	0.042183	20.967207	-3.034618	0.000000	-0.697312	-0.263164	-5.040536	4.955300	0.086486	21.088349	-4.591720	0.000000	0.045058	-0.286429	2.285092	0.083677	-0.380950	2.427910	0.074025	-0.696423	2.427910	0.051497	-0.696423	1.999456	0.041841	-0.584086	1.856637	0.025746	-0.443678	1.713819	0.321843	-3.240140	12.708997	0.000000	0.000000	11.851289	3.901858	-10.452367	5.471615	-2.784227	45.397230	37.667058	29.787459	2.314885	12.731451	14.214702	-6.682573	63.441274	33.571674	59.926293	7.073964	-1.894102
0.088235	-0.789561	-2.566408	87.857036	0.240395	0.943756	0.602628	-1.810679	-0.343837	7.426065	2.451493	0.042787	21.038875	-3.201363	0.000000	-1.105275	-0.415787	-4.177022	4.693324	0.081914	20.542439	-5.803093	0.000000	0.040018	-0.252629	2.228034	0.074318	-0.335996	2.367286	0.065746	-0.614241	2.367286	0.045737	-0.614241	1.949530	0.037161	-0.515160	1.810278	0.022866	-0.391322	1.671026	0.285846	-2.857786	12.391658	0.000000	0.000000	11.420840	4.005132	-10.173967	5.324037	-3.007764	45.078536	38.003993	29.253316	1.930499	13.153497	13.649605	-6.684222	62.079116	33.633705	61.342264	6.499603	-2.186265
0.117647	-0.628034	-2.426840	87.891560	0.239989	0.944136	0.601962	-1.865793	-0.186570	7.183775	2.633740	0.045967	21.232626	-2.885172	0.000000	-1.331497	-0.513691	-3.575375	4.573764	0.079827	20.154188	-6.724088	0.000000	0.036453	-0.229153	2.187439	0.067696	-0.304774	2.324154	0.059888	-0.557163	2.324154	0.041662	-0.557163	1.914010	0.033850	-0.467289	1.777295	0.020829	-0.354958	1.640580	0.260377	-2.592228	12.165882	0.000000	0.000000	11.159545	4.063459	-9.954790	5.258529	-3.123923	45.073106	38.205807	28.761622	1.749333	13.449525	13.329449	-6.616201	61.272906	33.639379	62.155964	6.278559	-2.310033
0.147059	-0.535217	-2.367310	87.884706	0.239719	0.944290	0.601786	-1.769825	-0.116588	6.658977	2.942389	0.051354	21.525464	-2.168903	0.000000	-1.397118	-0.564367	-3.202278	4.580154	0.079939	19.908392	-7.383245	0.000000	0.034178	-0.214728	2.161244	0.063472	-0.285588	2.296321	0.056151	-0.522089	2.296321	0.039062	-0.522089	1.891088	0.031738	-0.437873	1.756010	0.019529	-0.332613	1.620933	0.244131	-2.429043	12.020189	0.000000	0.000000	11.047842	4.081648	-9.788833	5.267970	-3.153579	45.319923	38.280849	28.402495	1.727389	13.613521	13.222522	-6.491869	60.952219	33.581839	62.463155	6.341094	-2.291877
0.176471	-0.501255	-2.377144	87.848241	0.239565	0.944244	0.602029	-1.546318	-0.120487	5.903371	3.356172	0.058576	21.894396	-1.135409	0.000000	-1.323273	-0.575309	-3.024412	4.696025	0.081961	19.789846	-7.809106	0.000000	0.033012	-0.208077	2.147382	0.061306	-0.276742	2.281594	0.054235	-0.505918	2.281594	0.037729	-0.505918	1.878959	0.030655	-0.424310	1.744748	0.018863	-0.322311	1.610537	0.235801	-2.353806	11.943096	0.000000	0.000000	11.066174	4.064503	-9.670096	5.345239	-3.117607	45.757974	38.237468	28.266055	1.820668	13.639467	13.297113	-6.324584	61.046633	33.454225	62.359603	6.617466	-2.158266
0.205882	-0.516295	-2.445667	87.793932	0.239505	0.944025	0.602618	-1.218815	-0.184861	4.968656	3.853818	0.067262	22.316424	0.132455	0.000000	-1.131103	-0.554006	-3.008460	4.904913	0.085607	19.783344	-8.030210	0.000000	0.032771	-0.207925	2.143791	0.060859	-0.276541	2.277778	0.053840	-0.505550	2.277778	0.037454	-0.505550	1.875817	0.030431	-0.424001	1.741830	0.018725	-0.322076	1.607843	0.234081	-2.352092	11.923121	0.000000	0.000000	11.194980	4.016832	-9.592576	5.483215	-3.036884	46.326240	38.084013	28.442423	1.985171	13.521350	13.521513	-6.127705	61.485725	33.249678	61.941072	7.037938	-1.935670
0.235294	-0.570482	-2.562206	87.733545	0.239519	0.943661	0.603484	-0.810858	-0.296308	3.906532	4.414056	0.077040	22.768555	1.551832	0.000000	-0.841744	-0.507952	-3.121104	5.190349	0.090589	19.873682	-8.075100	0.000000	0.033273	-0.212998	2.148405	0.061791	-0.283288	2.282680	0.054664	-0.517884	2.282680	0.038027	-0.517884	1.879854	0.030897	-0.434346	1.745579	0.019012	-0.329934	1.611304	0.237664	-2.409479	11.948783	0.000000	0.000000	11.414701	3.943441	-9.550271	5.674777	-2.932284	46.963707	37.828833	29.021718	2.176901	13.253154	13.864010	-5.914589	62.199070	32.961341	61.303326	7.532769	-1.650559
0.264706	-0.653962	-2.716085	87.678845	0.239589	0.943179	0.604556	-0.345991	-0.441422	2.768701	5.015618	0.087539	23.227794	3.039868	0.000000	-0.476334	-0.444637	-3.329025	5.535866	0.096619	20.045652	-7.972316	0.000000	0.034334	-0.222020	2.159160	0.063761	-0.295287	2.294108	0.056407	-0.539821	2.294108	0.039240	-0.539821	1.889265	0.031882	-0.452744	1.754318	0.019618	-0.343910	1.619370	0.245243	-2.511540	12.008600	0.000000	0.000000	11.705777	3.849137	-9.537179	5.912803	-2.824684	47.609360	37.480275	30.094059	2.351858	12.828864	14.292893	-5.698595	63.116245	32.582353	60.542130	8.032220	-1.329402
0.294118	-0.756881	-2.896630	87.641601	0.239692	0.942605	0.605762	0.152244	-0.606798	1.606863	5.637234	0.098388	23.671144	4.513708	0.000000	-0.056012	-0.371554	-3.598905	5.924999	0.103411	20.284051	-7.750399	0.000000	0.035772	-0.233717	2.173992	0.066432	-0.310843	2.309866	0.058769	-0.568259	2.309866	0.040883	-0.568259	1.902243	0.033218	-0.476595	1.766368	0.020440	-0.362027	1.630494	0.255513	-2.643852	12.091090	0.000000	0.000000	12.048650	3.738726	-9.547297	6.190173	-2.734958	48.202182	37.046690	31.749566	2.466044	12.242464	14.776452	-5.493081	64.166828	32.105857	59.753249	8.466552	-0.998670
0.323529	-0.813471	-3.084668	87.682351	0.239640	0.941950	0.606945	0.619020	-0.711855	0.639764	6.208286	0.108355	23.964126	5.578470	0.000000	0.385473	-0.346968	-3.863491	6.333899	0.110547	20.603754	-7.419074	0.000000	0.037787	-0.239203	2.194430	0.070174	-0.318141	2.331582	0.062080	-0.581599	2.331582	0.043186	-0.581599	1.920127	0.035089	-0.487784	1.782975	0.021591	-0.370526	1.645823	0.269907	-2.705917	12.204763	0.000000	0.000000	12.470231	3.570107	-9.619121	6.552749	-2.687568	48.936981	36.429859	35.340875	2.178388	11.150310	15.503182	-5.185577	66.277587	31.312205	58.933427	8.686017	-1.063236
0.352941	-0.829653	-3.258437	87.781509	0.239491	0.941294	0.608107	1.039395	-0.768690	-0.141050	6.723854	0.117353	24.161573	6.311616	0.000000	0.813412	-0.354137	-3.930170	6.739735	0.117631	20.910851	-7.271657	0.000000	0.039666	-0.238751	2.204278	0.073663	-0.317538	2.342046	0.065167	-0.580498	2.342046	0.045334	-0.580498	1.928744	0.036833	-0.486860	1.790976	0.022665	-0.369825	1.653209	0.283327	-2.700795	12.259535	0.000000	0.000000	12.836382	3.409552	-9.607705	6.963257	-2.741408	49.622717	35.745174	39.826999	1.725238	9.812672	16.194839	-4.882762	68.344993	30.295344	58.621452	8.596215	-1.074156
0.382353	-0.844683	-3.411055	87.925544	0.239362	0.940646	0.609205	1.414278	-0.815664	-0.806077	7.198889	0.125644	24.297510	6.825616	0.000000	1.219264	-0.368310	-4.000859	7.146596	0.124732	21.252497	-7.032213	0.000000	0.039814	-0.239140	2.209651	0.073938	-0.318057	2.347754	0.065410	-0.581446	2.347754	0.045503	-0.581446	1.933445	0.036971	-0.487655	1.795342	0.022750	-0.370429	1.657238	0.284385	-2.705205	12.289417	0.000000	0.000000	13.155862	3.293527	-9.589867	7.359450	-2.865286	49.863783	35.049469	44.941852	1.135815	8.390983	16.775490	-4.679831	70.050029	29.135719	58.832604	8.041671	-0.998102
0.411765	-0.866713	-3.540685	88.128263	0.239279	0.940048	0.610148	1.723292	-0.858461	-1.363636	7.609750	0.132815	24.357017	7.114057	0.000000	1.583626	-0.384501	-4.086087	7.521814	0.131280	21.606525	-6.656529	0.000000	0.038511	-0.241421	2.206231	0.071520	-0.321089	2.344120	0.063271	-0.586990	2.344120	0.044015	-0.586990	1.930452	0.035762	-0.492305	1.792563	0.022005	-0.373960	1.654673	0.275084	-2.730998	12.270395	0.000000	0.000000	13.424575	3.235318	-9.534072	7.722210	-3.079490	49.476510	34.373140	50.519114	0.403165	6.994108	17.080220	-4.627596	70.834480	27.978358	59.539493	7.047438	-0.873305
0.441176	-0.910937	-3.651108	88.389481	0.239287	0.939517	0.610825	1.960271	-0.906454	-1.747922	7.952957	0.138805	24.319810	7.074436	0.000000	1.891206	-0.380850	-4.017998	7.832274	0.136699	21.887472	-6.404536	0.000000	0.037430	-0.247500	2.192686	0.069511	-0.329175	2.329729	0.061494	-0.601771	2.329729	0.042779	-0.601771	1.918600	0.034758	-0.504702	1.781557	0.021388	-0.383377	1.644514	0.267360	-2.799768	12.195062	0.000000	0.000000	13.626316	3.242639	-9.405316	8.053293	-3.420869	48.394351	33.726415	56.376077	-0.450838	5.655063	16.988839	-4.788050	70.326600	26.945657	60.864819	5.690355	-0.683595
